# xmcd
#
# Track frame offsets:
#	150
#	25287
#	46941
#	82911
#	92486
#	104840
#	135014
#	152216
#	157480
#	171828
#	208304
#	236428
#	251045
#	275988
#	295741
#
# Disc length: 4194 seconds
#
# Revision: 2
# Processed by: cddbd v1.5.2PL0 Copyright (c) Steve Scherf et al.
# Submitted via: audiograbber 1.83.01
#
DISCID=d710600f
DTITLE=Grateful Dead - 71-03-21A Exposition Centre, Milwaukee WI
DYEAR=1900
DGENRE=
TTITLE0=Casey Jones
TTITLE1=Not Fade Away
TTITLE2=GDTRFB
TTITLE3=Darkness Jam
TTITLE4=Not Fade Away
TTITLE5=Uncle John's Band
TTITLE6=Johnny B Goode
TTITLE7=Outro
TTITLE8=Me and My Uncle
TTITLE9=Hard To Handle
TTITLE10=Loser
TTITLE11=BIODTL
TTITLE12=Me and Bobby McGee
TTITLE13=Not Fade Away
TTITLE14=GDTRFB
EXTD=
EXTT0=
EXTT1=
EXTT2=
EXTT3=
EXTT4=
EXTT5=
EXTT6=
EXTT7=
EXTT8=
EXTT9=
EXTT10=
EXTT11=
EXTT12=
EXTT13=
EXTT14=
PLAYORDER=
